<svg xmlns="http://www.w3.org/2000/svg" version="1.1" xmlns:xlink="http://www.w3.org/1999/xlink"
  xmlns:svgjs="http://svgjs.dev/svgjs" width="2000" height="1247" viewBox="0 0 2000 1247">
  <g transform="matrix(1,0,0,1,-1.2121212121212466,224.0399943156258)">
    <svg viewBox="0 0 396 247" data-background-color="#ffffff" preserveAspectRatio="xMidYMid meet"
      height="1247" width="2000" xmlns="http://www.w3.org/2000/svg"
      xmlns:xlink="http://www.w3.org/1999/xlink">
      <g id="tight-bounds" transform="matrix(1,0,0,1,0.2400000000000091,-0.09999999999999432)">
        <svg viewBox="0 0 395.52 247.2" height="247.2" width="395.52">
          <g>
            <svg></svg>
          </g>
          <g>
            <svg viewBox="0 0 395.52 247.2" height="247.2" width="395.52">
              <g transform="matrix(1,0,0,1,75.54432,80.61762845881759)">
                <svg viewBox="0 0 244.43135999999998 85.96474308236482" height="85.96474308236482"
                  width="244.43135999999998">
                  <g>
                    <svg viewBox="0 0 244.43135999999998 85.96474308236482"
                      height="85.96474308236482" width="244.43135999999998">
                      <g>
                        <svg viewBox="0 0 244.43135999999998 85.96474308236482"
                          height="85.96474308236482" width="244.43135999999998">
                          <g>
                            <svg viewBox="0 0 244.43135999999998 85.96474308236482"
                              height="85.96474308236482" width="244.43135999999998">
                              <g id="textblocktransform">
                                <svg viewBox="0 0 244.43135999999998 85.96474308236482"
                                  height="85.96474308236482" width="244.43135999999998"
                                  id="textblock">
                                  <g>
                                    <svg viewBox="0 0 244.43135999999998 85.96474308236482"
                                      height="85.96474308236482" width="244.43135999999998">
                                      <g transform="matrix(1,0,0,1,0,0)">
                                        <svg width="244.43135999999998"
                                          viewBox="-3.1 -30.45 98.94999999999999 34.8"
                                          height="85.96474308236482" data-palette-color="#755bb4">
                                          <path
                                            d="M20.45 3.3L20.45 3.3Q17.55 3.3 16.07 2.95 14.6 2.6 14.6 2.35L14.6 2.35Q14.6 2.05 15.9 2.05L15.9 2.05Q16.25 2.05 16.63 2.08 17 2.1 17.5 2.15L17.5 2.15Q17.85 2.2 18.25 2.23 18.65 2.25 19.05 2.25L19.05 2.25Q21.4 2.25 24.53 1.7 27.65 1.15 30.95 0.15 34.25-0.85 37.25-2.27 40.25-3.7 42.43-5.43 44.6-7.15 45.35-9.15L45.35-9.15Q46-10.75 46-12.55L46-12.55Q46-15.55 44.2-18.32 42.4-21.1 39.23-23.25 36.05-25.4 31.85-26.6 27.65-27.8 22.9-27.7L22.9-27.7Q17.7-27.55 14.28-27.05 10.85-26.55 8.75-25.75 6.65-24.95 5.43-23.95 4.2-22.95 3.48-21.88 2.75-20.8 2.05-19.7L2.05-19.7Q2.05-19.6 2.2-18.93 2.35-18.25 2.85-17.65 3.35-17.05 4.4-17.05L4.4-17.05Q5.4-17.05 5.4-16.75L5.4-16.75Q5.4-16.55 5.1-16.4 4.8-16.25 4.45-16.25L4.45-16.25Q3.7-16.25 2.6-16.43 1.5-16.6 0.4-16.85-0.7-17.1-1.53-17.4-2.35-17.7-2.55-17.95L-2.55-17.95Q-2.75-18.2-2.93-18.65-3.1-19.1-3.1-19.6L-3.1-19.6Q-3.1-20.55-2.45-21.7-1.8-22.85-0.15-24 1.5-25.15 4.45-26.18 7.4-27.2 11.9-27.9 16.4-28.6 22.85-28.75L22.85-28.75 24.4-28.75Q30.1-28.75 34.43-27.75 38.75-26.75 41.78-25.08 44.8-23.4 46.7-21.38 48.6-19.35 49.48-17.25 50.35-15.15 50.35-13.35L50.35-13.35Q50.35-12.05 49.95-10.95L49.95-10.95Q48.75-7.85 46.65-5.58 44.55-3.3 41.93-1.75 39.3-0.2 36.45 0.75 33.6 1.7 30.9 2.23 28.2 2.75 25.95 2.98 23.7 3.2 22.3 3.25L22.3 3.25Q21.8 3.3 21.33 3.3 20.85 3.3 20.45 3.3ZM10.5 4.35L10.5 4.35Q10.1 4.35 9.55 3.68 9 3 8.6 1.05L8.6 1.05Q8.55 0.75 8.53 0.43 8.5 0.1 8.5-0.25L8.5-0.25Q8.5-1.95 8.97-4.28 9.45-6.6 10.25-9.18 11.05-11.75 12-14.25 12.95-16.75 13.95-18.85 14.95-20.95 15.75-22.25L15.75-22.25Q16.45-23.4 17.8-23.85 19.15-24.3 20.35-24.3L20.35-24.3Q21.5-24.3 22.25-23.98 23-23.65 22.65-23.25L22.65-23.25Q21-21.25 19.28-18.4 17.55-15.55 16-12.4 14.45-9.25 13.28-6.13 12.1-3 11.48-0.4 10.85 2.2 11.05 3.9L11.05 3.9Q11.05 4.35 10.5 4.35ZM51.2 2.9L51.2 2.9Q51 2.95 50.67 2.48 50.35 2 50.35 1.2L50.35 1.2Q50.35 0.95 50.37 0.73 50.4 0.5 50.45 0.3L50.45 0.3Q50.5 0.05 51.15-1.73 51.8-3.5 52.8-6.18 53.8-8.85 54.87-12 55.95-15.15 56.92-18.23 57.9-21.3 58.5-23.8 59.1-26.3 59.1-27.65L59.1-27.65Q59.1-28.15 59.05-28.35L59.05-28.35Q59-28.6 58.97-28.8 58.95-29 58.95-29.15L58.95-29.15Q58.95-29.85 59.27-30.15 59.6-30.45 60.1-30.45L60.1-30.45Q61-30.45 62.12-29.65 63.25-28.85 64.05-27.5 64.85-26.15 64.65-24.5L64.65-24.5Q64.55-23.65 64.1-22.43 63.65-21.2 63.1-19.9 62.55-18.6 62.07-17.57 61.6-16.55 61.45-16.07 61.3-15.6 61.65-16L61.65-16Q62.3-16.7 63.57-17.82 64.85-18.95 66.45-20.1 68.05-21.25 69.7-22.15 71.35-23.05 72.75-23.35L72.75-23.35Q73-23.4 73.17-23.43 73.35-23.45 73.55-23.45L73.55-23.45Q75.6-23.45 76.6-21.18 77.6-18.9 77.6-15.25L77.6-15.25Q77.6-13.9 77.45-12.43 77.3-10.95 77.05-9.35L77.05-9.35Q76.9-8.4 76.77-7 76.65-5.6 76.65-4.45L76.65-4.45Q76.65-3.45 76.77-2.88 76.9-2.3 77.2-2.65L77.2-2.65Q78.65-4.2 80.12-6.23 81.6-8.25 83.02-10.33 84.45-12.4 85.9-14.23 87.35-16.05 88.77-17.28 90.2-18.5 91.65-18.8L91.65-18.8Q91.8-18.85 91.95-18.85 92.1-18.85 92.25-18.85L92.25-18.85Q93.4-18.85 93.97-17.9 94.55-16.95 94.75-15.38 94.95-13.8 94.95-11.85L94.95-11.85Q94.95-10.15 94.87-8.33 94.8-6.5 94.8-4.85L94.8-4.85Q94.8-3.3 94.92-2.02 95.05-0.75 95.4 0.1L95.4 0.1Q95.85 1.15 95.85 1.7L95.85 1.7Q95.85 2.1 95.55 2.1L95.55 2.1Q95.05 2.1 94 1.05L94 1.05Q92.5-0.4 92.05-2.7 91.6-5 91.6-7.35L91.6-7.35Q91.6-9.2 91.72-10.88 91.85-12.55 91.85-13.7L91.85-13.7Q91.85-14.6 91.7-15.13 91.55-15.65 91.15-15.55L91.15-15.55Q90-15.35 88.75-14.18 87.5-13 86.17-11.25 84.85-9.5 83.42-7.58 82-5.65 80.55-3.95 79.1-2.25 77.6-1.15 76.1-0.05 74.6 0L74.6 0Q72.6 0.05 71.9-0.93 71.2-1.9 71.2-3.45L71.2-3.45Q71.2-5.05 71.62-6.88 72.05-8.7 72.35-10.3L72.35-10.3Q72.65-11.95 72.77-13.33 72.9-14.7 72.9-15.8L72.9-15.8Q72.9-18.6 72.25-19.8 71.6-21 70.9-20.75L70.9-20.75Q69.4-20.3 67.35-18.75 65.3-17.2 63-14.73 60.7-12.25 58.52-9.03 56.35-5.8 54.7-2.05L54.7-2.05Q53.75 0.05 52.85 1.43 51.95 2.8 51.2 2.9Z"
                                            opacity="1" transform="matrix(1,0,0,1,0,0)"
                                            fill="#755bb4" class="wordmark-text-0"
                                            data-fill-palette-color="primary" id="text-0"></path>
                                        </svg>
                                      </g>
                                    </svg>
                                  </g>
                                </svg>
                              </g>
                            </svg>
                          </g>
                          <g></g>
                        </svg>
                      </g>
                    </svg>
                  </g>
                </svg>
              </g>
              <g>
                <path
                  d="M93.2 60.323A122.216 122.216 0 0 1 302.32 60.323L294.567 60.323A114.463 114.463 0 0 0 100.953 60.323L93.2 60.323M93.2 186.877A122.216 122.216 0 0 0 302.32 186.877L294.567 186.877A114.463 114.463 0 0 1 100.953 186.877L93.2 186.877"
                  fill="#eae0ff" stroke="transparent" data-fill-palette-color="tertiary"></path>
              </g>
            </svg>
          </g>
          <defs></defs>
        </svg>
        <rect width="395.52" height="247.2" fill="none" stroke="none" visibility="hidden"></rect>
      </g>
    </svg>
  </g>
</svg>